<?xml version="1.0" standalone="no"?>
<!DOCTYPE svg PUBLIC "-//W3C//DTD SVG 20010904//EN"
 "http://www.w3.org/TR/2001/REC-SVG-20010904/DTD/svg10.dtd">
<svg version="1.0" xmlns="http://www.w3.org/2000/svg"
 width="512.000000pt" height="512.000000pt" viewBox="0 0 512.000000 512.000000"
 preserveAspectRatio="xMidYMid meet">
<metadata>
Created by potrace 1.11, written by Peter Selinger 2001-2013
</metadata>
<g transform="translate(0.000000,512.000000) scale(0.100000,-0.100000)"
fill="#000000" stroke="none">
<path d="M1975 5101 c200 -57 348 -207 412 -418 24 -79 24 -247 0 -326 -64
-211 -212 -361 -412 -418 l-60 -18 98 0 97 -1 0 -155 0 -155 -450 0 -450 0 0
-150 0 -150 -170 0 -170 0 -26 52 c-32 63 -124 157 -183 188 -134 68 -288 68
-422 0 -55 -29 -150 -124 -179 -179 -68 -134 -68 -288 0 -422 31 -59 125 -151
188 -183 l52 -26 0 -180 0 -180 -52 -26 c-29 -14 -77 -52 -109 -83 -90 -90
-129 -184 -129 -311 0 -108 28 -191 93 -273 l30 -39 103 103 103 102 -20 25
c-14 18 -19 40 -19 85 0 57 2 61 44 103 42 43 45 44 106 44 61 0 64 -1 106
-44 42 -42 44 -46 44 -103 0 -45 -5 -67 -19 -85 l-20 -25 103 -102 103 -103
30 39 c108 137 124 323 43 484 -31 59 -125 151 -188 183 l-52 26 0 180 0 180
52 26 c67 34 158 125 192 192 l26 52 170 0 170 0 0 -764 0 -764 -36 -6 c-19
-4 -63 -19 -97 -33 -220 -93 -389 -291 -448 -523 -18 -71 -18 -269 0 -340 69
-274 287 -491 561 -561 46 -12 278 -14 1380 -14 l1325 0 75 23 c246 77 435
266 512 512 33 108 33 312 0 420 -75 241 -261 431 -495 505 l-72 23 -3 761 -2
761 167 0 168 0 32 -59 c18 -33 53 -80 79 -105 25 -26 72 -61 105 -79 l59 -32
0 -175 0 -175 -59 -32 c-149 -82 -233 -224 -233 -393 0 -110 34 -208 103 -289
l20 -25 104 104 103 103 -19 31 c-59 97 16 226 131 226 115 0 190 -129 131
-226 l-19 -31 103 -103 104 -104 20 25 c69 81 103 179 103 289 0 169 -84 311
-233 393 l-59 32 0 175 0 175 59 32 c149 82 233 224 233 393 0 251 -191 442
-442 442 -169 0 -311 -84 -393 -233 l-32 -59 -167 0 -168 0 0 150 0 150 -450
0 -450 0 0 155 0 155 113 1 c100 1 107 2 62 11 -133 25 -297 139 -377 262
-123 191 -123 461 0 652 80 123 244 237 377 262 33 7 -168 10 -610 10 -641 1
-658 0 -600 -17z m-508 -3917 c84 -21 147 -57 208 -119 62 -61 98 -124 119
-208 20 -80 20 -134 0 -214 -21 -84 -57 -147 -119 -208 -101 -101 -229 -146
-365 -128 -206 27 -360 175 -391 377 -49 311 242 577 548 500z m1662 -28 c-35
-53 -70 -129 -95 -211 -26 -85 -26 -305 0 -390 25 -82 60 -158 95 -211 l30
-44 -594 0 c-327 0 -595 2 -595 4 0 2 16 30 35 62 140 232 140 536 0 768 -19
32 -35 60 -35 62 0 2 268 4 595 4 l594 0 -30 -44z m738 28 c84 -21 147 -57
208 -119 62 -61 98 -124 119 -208 20 -80 20 -134 0 -214 -21 -84 -57 -147
-119 -208 -101 -101 -229 -146 -365 -128 -206 27 -360 175 -391 377 -49 311
242 577 548 500z"/>
<path d="M1210 750 l0 -150 150 0 150 0 0 150 0 150 -150 0 -150 0 0 -150z"/>
<path d="M3610 750 l0 -150 150 0 150 0 0 150 0 150 -150 0 -150 0 0 -150z"/>
<path d="M1713 4802 c-251 -90 -272 -432 -35 -549 81 -40 183 -40 264 0 107
53 163 144 163 267 0 85 -21 142 -74 203 -72 81 -213 117 -318 79z"/>
<path d="M3224 4810 c-89 -28 -181 -123 -205 -213 -27 -100 12 -231 88 -298
66 -58 110 -74 203 -74 76 0 91 3 138 29 60 33 101 76 134 139 19 34 23 58 23
127 0 69 -4 93 -23 127 -57 107 -143 164 -256 169 -39 2 -85 -1 -102 -6z"/>
</g>
</svg>
